<svg xmlns="http://www.w3.org/2000/svg" xmlns:xlink="http://www.w3.org/1999/xlink" viewBox="0,0,256,256" width="32px" height="32px" fill-rule="nonzero"><g fill="#fcc419" fill-rule="nonzero" stroke="none" stroke-width="1" stroke-linecap="butt" stroke-linejoin="miter" stroke-miterlimit="10" stroke-dasharray="" stroke-dashoffset="0" font-family="none" font-weight="none" font-size="none" text-anchor="none" style="mix-blend-mode: normal"><g transform="scale(8,8)"><path d="M12.91211,5.00195c-0.30875,-0.00962 -0.62926,0.01227 -0.94726,0.07227c-1.108,0.21 -1.54392,0.65661 -1.91992,0.97461c-0.021,-0.253 0.04691,-0.50677 0.12891,-0.75977c-0.978,0.696 -1.57508,1.63345 -1.83008,2.81445c-0.13,-0.305 -0.16864,-0.60973 -0.18164,-0.92773c-0.463,0.619 -0.57483,1.33131 -0.54883,2.07031c0.03,0.898 0.27617,1.71809 0.95117,2.37109c-0.195,-0.799 -0.07384,-1.55922 0.28516,-2.32422c0.311,1.027 0.92714,1.76919 1.86914,2.24219c0.005,-0.026 0.00781,-0.03388 0.00781,-0.04687c0,-0.022 0.00009,-0.04736 -0.00391,-0.06836c-0.091,-0.601 -0.03958,-1.19811 0.10742,-1.78711c0.017,-0.052 0.009,-0.11197 0,-0.16797c-0.138,-0.696 -0.02034,-1.33605 0.47266,-1.87305c0.618,-0.67 1.68745,-0.68239 2.31445,-0.02539c0.303,0.314 0.44123,0.704 0.49023,1.125c0.077,0.679 -0.07459,1.30867 -0.43359,1.88867c-0.039,0.06 -0.04409,0.10425 0.00391,0.15625c0.459,0.524 -0.23186,-0.14558 1.61914,1.60742c0.082,0.078 0.163,0.15823 0.25,0.24023c0.376,-0.46 0.66953,-0.97481 0.89453,-1.50781c0.389,-0.92 0.58837,-1.86152 0.35938,-2.85352c-0.376,-1.632 -1.35063,-2.70547 -3.01562,-3.10547c-0.268,-0.0645 -0.5643,-0.10561 -0.87305,-0.11523zM11.45898,9.07227c-0.074,0.086 -0.13883,0.18216 -0.17383,0.28516c-0.074,0.232 -0.15036,0.46322 -0.19336,0.69922c-0.1,0.537 -0.1137,1.07823 0.0293,1.61523c0.026,0.086 0.06848,0.14136 0.14648,0.19336c0.416,0.275 0.76252,0.61922 0.97852,1.07422c0.034,0.082 0.0607,0.16781 0.0957,0.25781c-0.142,-0.163 -0.26902,-0.32675 -0.41602,-0.46875c-0.476,-0.455 -1.16753,-0.72988 -2.01953,-1.29687c-0.428,-0.287 -0.79248,-0.63939 -1.02148,-1.15039c-0.152,0.602 -0.0862,1.13811 0.2168,1.66211c-0.562,-0.15 -1.11989,-0.1792 -1.71289,-0.1582c0.385,0.245 0.72608,0.51906 0.95508,0.91406c0.164,0.288 0.13009,0.44763 -0.12891,0.64063c-0.74,0.507 -1.61388,0.80345 -2.29688,1.43945c0.051,0.013 0.086,0.004 0.125,0c0.333,-0.052 0.66581,-0.09564 1.00781,-0.05664c0.467,0.051 0.78656,0.29717 0.85156,0.70117c0.031,0.189 0.02209,0.39098 -0.00391,0.58398c-0.026,0.206 -0.09458,0.40728 -0.14258,0.61328c0.796,-0.683 1.66922,-1.2283 2.69922,-1.5293c-0.334,-0.06 -0.66191,-0.11969 -1.00391,-0.17969c0.956,-1.053 2.81211,-1.03544 3.03711,-0.89844c-0.705,0.06 -1.37972,0.22695 -2.01172,0.62695c0.679,0.155 0.40645,0.08648 1.06445,0.27148c-0.666,0.339 -1.14216,0.81242 -1.41016,1.48242c0.35,-0.202 0.72709,-0.27033 1.12109,-0.23633c0.925,0.081 1.45608,0.80689 1.08008,1.71289c-0.095,0.228 -0.23841,0.41845 -0.44141,0.56445l0.01367,0.03906c0.273,-0.034 0.54908,-0.06952 0.83008,-0.10352c-0.139,0.327 -0.3845,0.56753 -0.6875,0.76953c0.688,0.065 1.85684,-0.60237 1.96484,-1.10937c-0.268,0.021 -0.66669,0.1255 -0.67969,-0.3125c-0.004,-0.103 -0.01291,-0.01811 0.12109,-0.78711c-0.044,0.034 -0.09058,0.07819 -0.14258,0.11719c-0.311,0.215 -0.48434,-0.13311 -0.40234,-0.41211c0.078,-0.266 0.163,-0.5335 0.25,-0.8125c-0.312,-0.099 -0.66062,-0.12558 -1.01562,-0.14258c0.216,-0.116 1.423,-0.39527 2.5,-0.19727c0.428,0.077 0.17956,0.57394 -0.02344,0.96094c0.437,0.034 0.69819,0.03384 0.99219,0.08984c0.93,0.185 0.72989,0.99841 0.71289,1.19141c0.783,-0.361 1.35973,-1.65544 1.17773,-2.52344c-0.168,0.279 -0.37598,0.51105 -0.70898,0.62305c0.013,-0.318 -0.15192,-0.50128 -0.41992,-0.61328c-0.026,-0.013 -0.05283,-0.05994 -0.04883,-0.08594c0.069,-0.456 -0.03809,-0.87148 -0.24609,-1.27148c-0.272,-0.533 -0.67442,-0.95538 -1.10742,-1.35937c-1.251,-1.169 -1.92481,-1.73456 -2.13281,-2.72656c-0.035,-0.159 -0.03855,-0.31805 -0.06055,-0.49805c-0.034,0.056 -0.06003,0.09762 -0.08203,0.14063c-0.186,0.412 -0.23755,0.85183 -0.18555,1.29883c0.022,0.18 0.0777,0.3378 0.2207,0.4668c0.424,0.387 0.84672,0.77774 1.26172,1.17774c0.433,0.417 0.83087,0.89317 1.04687,1.45117c-0.069,-0.06 -0.11411,-0.13217 -0.16211,-0.20117c-0.311,-0.434 -0.71452,-0.78734 -1.10351,-1.15234c-0.497,-0.464 -0.9998,-0.9193 -1.4668,-1.4043c-0.848,-0.88 -0.82166,-1.68056 -0.84766,-1.97656zM23.31055,12.58789c-0.026,0 -0.05203,0.00967 -0.08203,0.01367c-0.835,0.142 -1.32823,0.66549 -2.11523,1.27149c-0.45,0.348 -0.59558,0.16252 -0.51758,-0.02149c0.061,-0.15 0.1427,-0.28769 0.2207,-0.42969c0.043,-0.077 0.09839,-0.14575 0.15039,-0.21875c-0.009,-0.009 -0.0213,-0.01348 -0.0293,-0.02148c-1.168,0.786 -2.02009,1.82144 -2.49609,3.14844c0.013,0.013 0.02997,0.02606 0.04297,0.03906c0.013,-0.026 0.02206,-0.05127 0.03906,-0.07227c0.45,-0.52 0.98503,-0.9363 1.58203,-1.2793c0.787,-0.455 1.62206,-0.78714 2.53906,-0.86914c0.186,-0.017 0.37736,-0.00391 0.56836,-0.00391c-0.078,0.03 -0.15247,0.03887 -0.23047,0.04688c-0.8,0.103 -1.53456,0.38692 -2.22656,0.79492c-1.306,0.769 -2.359,1.81439 -3.25,3.02539c-0.013,0.017 -0.0163,0.03769 -0.0293,0.05469c0.627,0.228 1.03655,0.74456 1.56055,1.10156c0.009,-0.004 0.01358,-0.00958 0.01758,-0.01758l0.05273,-0.11719c0.528,-1.156 1.16753,-2.24717 2.01953,-3.20117c0.722,-0.808 1.64313,-1.08542 2.70313,-0.85742c0.255,0.056 0.49314,0.18802 0.74414,0.29102c0.099,-0.06 0.22266,-0.13617 0.34766,-0.20117c0.363,-0.185 0.7523,-0.30072 1.1543,-0.38672c0.636,-0.133 1.27678,-0.21164 1.92578,-0.05664v-0.02149c-0.023,-0.019 -0.05417,-0.0365 -0.07617,-0.0625c-0.502,-0.498 -1.08038,-0.87558 -1.73437,-1.14258c-0.554,-0.223 -1.12556,-0.33869 -1.72656,-0.30469c-0.433,0.026 -0.84791,0.13339 -1.25391,0.27539c-0.108,0.039 -0.22003,0.0697 -0.33203,0.0957c-0.212,0.052 -0.31612,-0.13397 -0.20312,-0.29297c0.138,-0.198 0.14644,-0.17962 0.64844,-0.51562c0.026,-0.017 0.0527,-0.03445 0.0957,-0.06445zM13.89844,13.85156c0.506,0.206 0.8303,0.55797 1.0293,1.04297c-0.485,0.052 -0.8863,-0.35597 -1.0293,-1.04297zM7.42773,15.22852c-1.047,1.059 -1.92573,2.22186 -2.42773,3.63086c0.32,-0.253 0.64548,-0.48931 1.02148,-0.69531c-0.359,0.958 -0.84889,2.26875 -0.33789,4.34375c0.199,0.816 0.51497,1.58009 1.04297,2.24609c0.125,0.159 0.27411,0.29541 0.41211,0.44141c0.009,-0.009 0.01639,-0.01153 0.02539,-0.01953c-0.061,-0.301 -0.09445,-0.60641 -0.06445,-0.94141c0.095,0.137 0.16791,0.25814 0.25391,0.36914c0.545,0.687 1.24197,1.1773 2.04297,1.5293c1.081,0.485 2.20914,0.57114 3.36914,0.36914c2.375,-0.417 3.92258,-2.08909 5.01758,-4.24609c0.042,-0.075 0.02594,-0.12173 -0.03906,-0.17773c-1.704,-1.418 -0.98666,-0.8383 -1.84766,-1.5293c-0.035,0.039 -0.00003,-0.00909 -0.08203,0.12891c-0.484,0.821 -1.10234,1.51692 -1.90234,2.04492c-0.446,0.292 -0.92961,0.50781 -1.47461,0.50781c-0.934,0 -1.65172,-0.40931 -2.13672,-1.19531c-0.519,-0.838 -0.57547,-1.7475 -0.35547,-2.6875c0.337,-1.452 1.30192,-2.37072 1.66992,-2.76172c-0.809,-0.266 -1.42781,0.0717 -2.00781,0.5957c0.035,-0.597 0.18577,-1.12556 0.50977,-1.60156c-1.051,0.455 -1.98573,1.07472 -2.80273,1.88672c-0.013,-0.249 0.23419,-1.87692 0.24219,-1.91992c0.013,-0.116 -0.02491,-0.22836 -0.12891,-0.31836zM13.74414,15.96094c-0.216,0.473 -0.06859,0.96216 0.31641,1.28516c0.195,0.163 0.40266,0.31347 0.59766,0.48047c0.199,0.163 0.3198,0.37472 0.3418,0.63672c0.017,0.202 0.03513,0.40747 0.07813,0.60547c0.095,0.455 0.38438,0.79012 0.73438,1.07813c0.714,0.589 1.42663,1.17263 2.14063,1.76563c0.774,0.644 0.6015,1.40925 0.5625,2.40625c-0.039,0.984 0.52822,1.84417 1.44922,2.20117c0.043,0.017 0.08725,0.02587 0.15625,0.04688c-0.679,-0.782 -0.4377,-1.89605 0.0293,-2.24805c0.013,0.095 0.01706,0.18539 0.03906,0.27539c0.407,1.895 1.96474,2.75736 3.67773,2.44336c0.692,-0.125 1.32347,-0.38061 1.85547,-0.84961c0.087,-0.077 0.16086,-0.1763 0.25586,-0.2793c-0.835,0.198 -1.55012,0.00392 -2.20312,-0.45508c0.03,-0.013 0.05603,-0.01367 0.08203,-0.01367c0.921,0.077 1.7568,-0.14605 2.4668,-0.74805c0.844,-0.713 1.14995,-1.84199 0.75195,-2.83398c-0.357,-0.865 -1.01858,-1.38888 -1.89258,-1.67187c-0.411,-0.133 -0.95923,-0.18 -1.24023,-0.125c0.428,0.172 0.6095,0.28363 0.8125,0.51562c0.545,0.619 0.44962,1.49098 -0.23437,1.95898c-0.506,0.348 -1.07564,0.45062 -1.68164,0.39063c-0.052,-0.004 -0.09986,-0.01639 -0.13086,-0.02539c0.121,-0.159 0.25961,-0.30184 0.34961,-0.46484c0.407,-0.722 0.235,-1.80916 -0.375,-2.41016c-0.091,-0.09 -0.19873,-0.16695 -0.30273,-0.25195c-0.013,0.056 -0.00409,0.08914 0.00391,0.11914c0.182,0.713 -0.35122,1.39123 -1.07422,1.36523c-0.329,-0.013 -0.60066,-0.16128 -0.84766,-0.36328c-0.844,-0.692 -1.69125,-1.38017 -2.53125,-2.07617c-0.255,-0.211 -0.54114,-0.34705 -0.86914,-0.37305c-0.199,-0.017 -0.40061,-0.02606 -0.59961,-0.03906c-0.255,-0.017 -0.38217,-0.12033 -0.45117,-0.36133c-0.039,-0.146 -0.06375,-0.2915 -0.09375,-0.4375c-0.065,-0.348 -0.26814,-0.55933 -0.61914,-0.61133c-0.19,-0.03 -0.38617,-0.04345 -0.57617,-0.06445c-0.562,-0.06 -0.85651,-0.31709 -0.97851,-0.87109z"></path></g></g></svg>